<?xml version="1.0" encoding="UTF-8" standalone="no"?>
<!-- Created with Inkscape (http://www.inkscape.org/) -->

<svg
   width="541.86664mm"
   height="386.29166mm"
   viewBox="0 0 541.86664 386.29166"
   version="1.1"
   id="svg5"
   inkscape:version="1.1 (c4e8f9e, 2021-05-24)"
   sodipodi:docname="Frey Logo.svg"
   xmlns:inkscape="http://www.inkscape.org/namespaces/inkscape"
   xmlns:sodipodi="http://sodipodi.sourceforge.net/DTD/sodipodi-0.dtd"
   xmlns:xlink="http://www.w3.org/1999/xlink"
   xmlns="http://www.w3.org/2000/svg"
   xmlns:svg="http://www.w3.org/2000/svg">
  <sodipodi:namedview
     id="namedview7"
     pagecolor="#ffffff"
     bordercolor="#666666"
     borderopacity="1.0"
     inkscape:pageshadow="2"
     inkscape:pageopacity="0.0"
     inkscape:pagecheckerboard="0"
     inkscape:document-units="mm"
     showgrid="false"
     showborder="true"
     inkscape:showpageshadow="true"
     fit-margin-top="0"
     fit-margin-left="0"
     fit-margin-right="0"
     fit-margin-bottom="0"
     inkscape:zoom="0.26916009"
     inkscape:cx="860.08294"
     inkscape:cy="867.51347"
     inkscape:window-width="1312"
     inkscape:window-height="847"
     inkscape:window-x="0"
     inkscape:window-y="25"
     inkscape:window-maximized="0"
     inkscape:current-layer="layer1" />
  <defs
     id="defs2" />
  <g
     inkscape:label="Layer 1"
     inkscape:groupmode="layer"
     id="layer1"
     transform="translate(282.35895,77.203979)">
    <image
       width="541.86664"
       height="386.29166"
       preserveAspectRatio="none"
       xlink:href="freybwlogo.png"
       id="image49"
       x="-282.35895"
       y="-77.203979" />
    <path
       style="fill:#221e20;stroke:none;stroke-width:0.264583"
       d="m -105.08813,15.135603 c 0.0161,1.941248 -0.17594,6.532827 1.20756,7.993327 2.51487,2.654564 8.211875,1.372658 11.492444,2.854589 -5.035285,11.685588 -10.886544,23.297356 -16.487774,34.660416 -1.63089,3.30835 -1.85843,9.187656 -4.58285,11.757025 -2.03517,1.919288 -8.6442,-0.08678 -11.20854,-0.334962 -6.98447,-0.676011 -15.25693,-2.718594 -22.225,-1.848115 -1.24857,0.156104 -2.22938,0.973402 -3.43958,1.201208 -1.51845,0.28575 -3.00408,-0.487098 -4.48231,0.245534 -1.40097,0.694531 -0.80539,2.138891 -0.313,3.26681 1.0406,2.383896 3.53033,5.418137 6.11822,6.160558 4.36616,1.252538 8.57356,0.189707 12.96459,0.189442 5.91238,-2.65e-4 11.85148,0.992981 17.72708,0.529167 -3.35862,8.024283 -8.92757,15.14766 -12.98707,22.754168 -0.97685,1.83039 -1.02341,3.97748 -2.06137,5.82083 -2.26775,4.02775 -5.4237,7.72319 -7.35939,11.90625 -1.14829,2.48206 -2.36855,4.93845 -3.50917,7.40833 -0.41222,0.89297 -0.3249,1.99681 -0.81227,2.83475 -1.1004,1.89256 -3.37608,3.23003 -4.66434,5.10275 -1.39647,2.02989 -3.05011,4.1201 -4.10686,6.35 -0.46355,0.97817 -0.22357,2.20319 -0.74427,3.10515 -0.39793,0.68898 -1.27926,0.77656 -1.72217,1.45601 -2.7305,4.18941 -5.20965,8.60054 -7.77002,12.90134 -1.56819,2.63393 -3.46525,4.11798 -2.68182,7.40834 -1.44039,0.52493 -3.22342,0.40825 -4.41087,1.47055 -2.26933,2.02988 -2.19286,5.76263 -4.20317,7.96475 -1.15041,1.25995 -2.96677,2.89084 -4.35451,3.88673 -0.9308,0.66807 -2.25081,0.84058 -2.94428,1.81584 -0.86387,1.21496 -0.85911,2.89454 -1.75737,4.17671 -4.36509,6.23094 -9.53981,11.99356 -13.51915,18.52083 -0.94403,1.54782 -0.63711,3.56923 -1.58141,5.00063 -1.30757,1.98173 -4.13226,3.23585 -5.68986,5.1091 -1.87246,2.25161 -2.79956,5.29696 -4.51565,7.61736 -1.96612,2.65641 -4.66963,4.60904 -6.66115,7.14375 -0.98107,1.24883 -1.13982,2.8522 -1.85949,4.23333 -0.82894,1.59014 -2.20371,2.74108 -3.16944,4.23333 -0.91308,1.41023 -1.28905,3.1115 -2.24764,4.48734 -0.80645,1.15622 -2.21218,1.34672 -3.03001,2.42887 -1.456,1.92617 -1.56845,4.34975 -2.91914,6.31296 -1.52427,2.21456 -3.61659,3.38931 -5.2885,5.33929 -1.00435,1.17475 -1.14961,2.8866 -1.96135,4.18571 -0.70565,1.12977 -1.87537,1.84679 -2.59107,2.95539 -1.47187,2.27807 -1.88145,5.15673 -3.39619,7.36336 -1.69836,2.47385 -4.26614,4.17248 -5.8928,6.61458 -2.91438,4.37621 -3.21918,8.45873 -3.20304,13.49375 0.0103,3.17236 -0.12912,5.79438 2.12831,8.40581 1.73037,2.0029 3.5634,-0.48154 4.70984,-1.79123 3.08928,-3.52689 5.56154,-7.4877 8.15525,-11.37708 8.88789,-13.32442 19.03281,-26.60385 26.0821,-41.01041 0.84984,-1.73832 1.67428,-3.35228 3.1205,-4.68578 1.33641,-1.23295 3.70734,-2.51883 4.32408,-4.31006 0.3593,-1.0451 -0.16378,-2.39712 -0.36565,-3.43958 4.43203,-0.10319 7.6065,-7.23636 10.20259,-10.31875 4.41643,-5.24404 7.10221,-11.30035 10.89766,-16.93333 3.07314,-4.56142 7.22074,-8.3185 10.29706,-12.96459 1.19882,-1.80975 2.17804,-3.81264 3.4708,-5.5536 1.55813,-2.09682 3.10832,-2.98926 3.23188,-5.82348 2.50455,-0.45482 2.51381,-2.58154 4.02829,-4.18465 0.91413,-0.96758 2.18016,-1.51977 2.88845,-2.69558 0.61145,-1.01467 0.26406,-2.12354 0.65114,-3.17394 0.58711,-1.59199 2.1762,-4.0296 3.11256,-5.53164 0.71279,-1.14353 1.97035,-1.76424 2.68658,-2.93608 0.58235,-0.95277 0.71808,-2.22673 1.40811,-3.09404 0.60537,-0.76041 1.66846,-0.93477 2.31193,-1.69624 1.35599,-1.60417 1.45177,-4.04998 2.70087,-5.792 1.01414,-1.41472 2.50269,-2.35055 3.58298,-3.70522 2.91121,-3.65072 5.57239,-7.88697 7.95497,-11.90519 1.85922,-3.13611 2.70324,-7.1165 4.64925,-10.04385 2.18255,-3.28269 4.70826,-6.62014 7.08846,-9.7999 0.68606,-0.91678 1.88171,-1.66291 2.37357,-2.69081 0.78502,-1.63963 0.73131,-3.76423 1.7018,-5.48773 3.0824,-5.47423 7.87956,-9.99437 10.77622,-15.633962 1.47082,-2.863585 2.67493,-8.577262 5.32421,-10.397596 2.21668,-1.522941 5.635357,-1.234281 8.198111,-1.521883 4.827322,-0.541867 9.013824,0.03281 13.758332,0.208227 2.421202,0.08943 4.932363,-0.724164 7.408333,-0.724164 2.265892,0 7.341129,-0.94324 9.200092,0.460904 0.906727,0.685006 0.889529,1.987021 1.23481,2.978679 1.2065,3.464719 0.068,6.724121 3.062816,9.478962 3.221302,2.963333 11.316229,5.646213 15.557764,3.213894 1.138502,-0.652992 2.026444,-2.234406 2.959365,-3.167592 3.323695,-3.325283 5.823214,-6.859058 8.627797,-10.582539 1.408642,-1.870604 4.566708,-2.797969 5.601494,-4.812242 0.57785,-1.125008 -0.380471,-2.815696 -0.6985,-3.920066 -1.496484,-5.197475 -6.641835,-7.382669 -11.943556,-7.408069 -4.704821,-0.02275 -10.193337,-1.518444 -14.816666,-0.328083 -3.458104,0.890323 -5.177895,4.106333 -8.995833,4.515114 -5.90841,0.633148 -11.837458,-1.207558 -17.727082,-1.277937 -3.430058,-0.04101 -6.886046,0.108214 -10.31875,-0.218546 -1.277408,-0.121708 -3.23797,0.197379 -3.329252,-1.633802 -0.159808,-3.201194 3.199606,-6.141508 4.842933,-8.465344 2.656946,-3.757083 4.220369,-8.529108 6.723592,-12.434358 0.796131,-1.241689 2.100791,-1.860814 3.029214,-2.957512 1.492779,-1.763448 2.206096,-4.925219 2.932906,-7.097713 1.488017,-4.448175 2.898511,-8.80692 6.085946,-12.406577 1.686719,-1.905 5.388504,-1.977495 7.760493,-2.16826 6.995848,-0.562239 15.577343,-1.743869 22.489582,-0.154781 2.709334,0.623094 2.379663,3.258079 3.462338,5.204618 0.497946,0.895615 1.346993,1.582209 1.493837,2.645834 0.13679,0.990864 -0.47625,2.120106 -0.03387,3.071812 0.469106,1.008592 2.310341,1.448065 3.279774,1.757892 2.861734,0.914664 5.77559,0.872067 8.73125,1.001448 1.034521,0.04551 2.158735,0.442648 3.175,0.09843 2.931583,-0.994304 4.892145,-4.228042 7.143749,-6.13754 1.944688,-1.647825 4.1724794,-2.049991 5.7282293,-4.290218 0.7090833,-1.01944 2.4923749,-2.95328 2.4473957,-4.233069 -0.068792,-1.969029 -2.3547915,-4.227248 -3.9422914,-5.081058 -4.4979166,-2.419879 -9.5350536,-3.43535 -14.2874996,-5.25489 -2.371989,-0.90805 -4.487862,-2.496873 -7.143749,-1.535112 -2.72415,0.986366 -4.411398,3.990445 -6.883135,4.866216 -5.733521,2.032 -13.42046,-0.09049 -19.310614,-0.375708 -3.104092,-0.150283 -6.066366,0.640556 -9.260416,0.236802 0.04445,-5.318125 2.452158,-10.5150706 3.731947,-15.61041634 0.940859,-3.74597076 0.341577,-7.35912066 0.814917,-11.11249966 0.157692,-1.250156 1.009121,-2.218796 1.214437,-3.439583 0.874448,-5.193242 0.480748,-12.711113 -1.090612,-17.727083 -0.977106,-3.118644 -2.595298,-5.408084 -4.104746,-8.202084 -4.445793,-8.22907 -11.222037,-16.130058 -20.145109,-20.089547 -1.502569,-0.666671 -3.220244,-0.509614 -4.7625,-1.094502 -2.795058,-1.059974 -6.010539,-3.406246 -8.995833,-3.661886 -4.69794,-0.402299 -9.45276,0.185975 -14.02291,0.947261 -1.12131,0.186822 -2.33627,-0.115967 -3.43482,0.170286 -1.50072,0.391107 -1.58433,2.48023 -3.18082,2.713619 -1.09273,0.159782 -2.20187,-0.816583 -3.17394,-1.192053 -1.77404,-0.685192 -4.02299,-0.82513 -5.78565,0.01714 -1.50415,0.718873 -1.3073,2.921344 -2.94693,3.674745 -1.43272,0.658442 -3.57319,0.135651 -4.93977,0.817853 -2.56169,1.278678 -4.83102,3.597222 -7.49432,4.925616 -3.54198,1.766649 -7.52369,2.594795 -10.83733,4.765701 -2.50137,1.638829 -3.72401,5.125508 -6.3709,6.69925 -1.61476,0.959908 -3.63432,0.409575 -5.27738,1.532202 -4.90644,3.3528 -9.07389,8.193616 -14.02689,11.522339 -1.89336,1.272382 -4.92257,1.041136 -6.51034,2.447661 -1.01388,0.897996 -0.81068,2.521479 -1.80551,3.37185 -1.21947,1.042193 -3.21072,0.37465 -4.56168,1.623218 -1.30652,1.207559 -1.27609,2.909094 -2.10794,4.357159 -1.26524,2.20292 -3.57769,4.39367 -5.24589,6.339681 -2.45137,2.859881 -5.92243,4.7799622 -8.58441,7.4421996 -4.11215,4.1124187 -7.61418,8.8698915 -11.48688,13.1820704 -2.10053,2.338917 -4.63074,4.289425 -6.7482,6.638131 -5.85549,6.494198 -11.13869,13.632921 -16.35125,20.6375 -2.6887,3.61315 -5.57371,5.918729 -7.57449,10.054167 -2.50455,5.176043 -5.56858,11.35327 -9.12887,15.863622 -0.74435,0.942975 -1.78913,1.219994 -2.63562,1.995223 -1.15408,1.057275 -3.67998,4.9911 -4.08368,6.482821 -0.63376,2.341827 3.52806,3.883289 3.71395,6.35 0.49718,6.597385 -0.52966,13.978995 1.62018,20.372916 1.25611,3.735912 3.61524,6.026682 5.48172,9.283962 1.89727,3.31126 3.11515,7.64276 6.17056,10.15524 3.60468,2.96386 9.01832,4.58735 13.4821,2.76093 1.71768,-0.703 2.91307,-2.11111 4.49792,-3.00911 1.11257,-0.6305 2.41353,-0.74401 3.429,-1.56818 2.78897,-2.26378 4.72652,-5.75866 7.68456,-7.88909 2.32092,-1.67137 4.80854,-1.16099 7.40727,-0.56568 1.39356,0.31936 3.10621,1.03003 4.47411,0.27279 2.76172,-1.52876 3.55679,-5.76315 5.45147,-8.10763 2.87946,-3.562876 5.02735,-7.781922 7.90469,-11.38634 1.13612,-1.423459 3.17659,-1.922727 4.1066,-3.452019 0.91572,-1.505744 0.86572,-3.456252 1.72138,-5.015706 1.11919,-2.039938 3.06573,-3.312319 3.95631,-5.55625 1.51554,-3.81926 -1.62189,-6.093089 -1.03319,-9.525 0.53578,-3.124993 2.16535,-5.559954 3.13081,-8.466666 0.56039,-1.687513 0.55166,-3.336396 1.32583,-5.027084 2.22726,-4.864893 5.24827,-8.370358 1.56157,-13.493485 -3.06493,-4.259527 -9.50436,-3.773487 -14.07874,-4.99692 -1.41923,-0.379678 -4.61381,-1.388269 -4.71911,-3.205692 -0.16907,-2.91174 3.45228,-5.695421 5.14508,-7.494058 4.5593,-4.843198 8.53335,-10.532269 13.28632,-15.0749 2.29976,-2.1978938 2.87523,-5.6329791 5.12207,-7.77160616 2.44792,-2.33018534 6.14627,-3.64093124 8.94583,-5.55545614 1.78593,-1.2213167 2.89295,-3.10515 4.49897,-4.5389267 1.45918,-1.302809 3.27237,-2.080684 4.75192,-3.344863 2.2516,-1.92405 2.72309,-4.996127 5.03766,-6.981825 1.16655,-1.000654 2.43179,-0.765968 3.70417,-1.408112 1.14485,-0.578115 1.87907,-1.728258 2.91042,-2.4638 1.05912,-0.755385 2.35955,-1.08241 3.43958,-1.838854 9.20088,-6.443927 17.41329,-13.535025 28.575,-16.511323 10.68731,-2.849827 23.725975,-0.658548 30.171489,9.219406 1.454414,2.229115 3.318668,5.596467 3.836987,8.202083 0.29845,1.499659 0.0029,3.008842 0.286808,4.497917 0.283369,1.487223 1.306777,2.70219 1.394884,4.233333 0.242093,4.212431 -2.209536,8.6341481 -3.027627,12.7000001 -0.579438,2.8805187 -0.579967,5.9007374 -1.374511,8.7312498 -0.571764,2.0362333 -1.786466,3.827727 -2.505868,5.8208331 -0.501915,1.390386 -1.0922,4.46696 -2.39739,5.284258 -1.582737,0.991394 -4.633118,-0.181504 -6.276445,-0.551391 -3.331898,-0.750094 -6.681517,-0.23495 -10.054167,-0.23495 M 10.005619,73.079352 c 0.288396,1.620573 1.256771,2.972329 1.833562,4.497916 1.386417,3.647017 2.791354,7.780602 3.344334,11.641667 0.492124,3.424237 0.0026,6.912239 0.428625,10.31875 0.171979,1.385625 0.973666,2.586035 1.19327,3.968745 0.3175,1.98808 0.01323,4.14841 0.447146,6.08542 0.232833,1.03664 0.971021,1.85764 1.161521,2.91042 0.537104,2.98053 0.362479,6.78577 1.764771,9.525 0.960437,1.87272 3.942291,5.4901 5.966353,6.18648 1.942042,0.66887 5.36575,-0.2741 7.14375,-1.10146 4.534958,-2.10925 7.522104,-4.20713 8.995833,-9.31836 -2.069042,-1.57665 -2.939521,-4.09389 -4.849812,-5.63509 -1.082146,-0.87286 -2.788708,-0.7239 -3.503083,-2.0664 -1.751542,-3.28718 -0.542396,-7.13898 -0.388938,-10.554755 0.129646,-2.892425 -0.891646,-6.63919 -1.436687,-9.525 -0.542396,-2.874169 -1.172104,-5.520531 -1.537229,-8.466667 -0.15875,-1.268941 -0.664105,-2.783681 0.248708,-3.878791 2.645833,-3.174471 7.167562,-2.747169 10.673291,-4.290748 3.010958,-1.324769 5.5245,-4.182004 7.9375,-6.355292 1.537229,-1.384829 3.071812,-2.270918 4.310062,-3.996002 1.656292,-2.307166 2.592916,-4.734983 3.987271,-7.14375 0.870479,-1.500187 2.156354,-2.694516 2.997729,-4.233333 3.291416,-6.027473 6.106583,-16.992864 0.849312,-22.753108 -2.148416,-2.351616 -4.995333,-3.269985 -7.646458,-4.856691 -1.547812,-0.926307 -2.669646,-2.392892 -4.233333,-3.321844 -3.653896,-2.170113 -8.511645,-2.953808 -12.699999,-2.646627 -3.743854,0.274637 -7.834312,2.833158 -11.641666,2.266685 -4.836584,-0.720196 -9.559396,-2.4892 -14.552083,-2.550054 -1.8467917,-0.02275 -4.9900415,0.694796 -6.2335831,2.16826 -1.2911666,1.528763 0.7752291,4.316148 1.0847916,6.028796 0.4947708,2.751667 -0.3624792,7.026804 -1.5769166,9.525 -3.346979,6.87705 -5.4186664,14.213152 -8.4111037,21.166666 -3.2596666,7.569729 -7.1781452,14.944196 -10.5171872,22.489583 -0.754062,1.704975 -0.804333,3.592777 -1.486958,5.268119 -2.855912,7.003256 -6.087004,14.261571 -9.234487,21.190213 -0.846402,1.86267 -1.075002,3.93224 -1.844675,5.82083 -0.849313,2.08466 -2.485231,3.7174 -3.301206,5.82084 -1.489869,3.84069 -1.426104,9.4189 -1.03161,13.49375 0.195262,2.01877 0.772847,8.33887 3.660245,8.2714 1.753129,-0.041 3.375819,-2.13572 4.541837,-3.22606 2.525184,-2.36141 4.815681,-3.68803 6.606646,-6.89743 2.262187,-4.05659 3.243791,-8.40607 4.79425,-12.7 0.510646,-1.41684 1.603375,-2.58921 2.2304371,-3.96875 1.0900833,-2.39765 1.6589374,-4.99401 2.6934582,-7.40833 2.4632707,-5.748336 6.138333,-10.751342 8.7947496,-16.404165 1.0398124,-2.210329 2.4870832,-4.867804 3.1988123,-7.14375 1.0847916,-3.484298 0.1640417,-7.755731 5.2387498,-8.202083 M 188.07019,110.3856 c 0,4.54792 -0.84931,8.52302 -1.27793,12.96458 -0.20373,2.10476 0.15081,4.2508 -0.12171,6.35 -0.1905,1.4658 -1.04246,2.79718 -1.1774,4.23334 -0.0873,0.91572 0.40746,1.73778 0.38365,2.64583 -0.0661,2.48629 -0.78317,5.13715 -0.95779,7.67292 -0.127,1.84414 0.3122,3.7465 0.16139,5.55625 -0.13494,1.59808 -1.03716,3.09959 -1.19856,4.7625 -0.6059,6.23728 0.16404,15.03971 -2.93158,20.6375 -1.17211,2.1209 -2.921,2.61752 -4.65138,4.0251 -0.72496,0.58976 -0.99748,1.56448 -1.73566,2.18493 -2.39184,2.00237 -5.31548,4.07009 -7.24694,6.53759 -5.82613,7.44273 -12.30313,14.91986 -17.42017,22.97113 -1.91294,3.01095 -3.21469,6.99823 -4.54289,10.31875 -2.27013,5.67795 -4.64873,10.64418 -5.77057,16.66875 -0.76729,4.11691 -2.28335,8.76829 -1.68275,12.96458 0.26194,1.82562 1.82563,3.25967 2.33628,5.02708 0.73025,2.52148 1.02658,4.64873 2.60085,6.87917 1.45521,2.0611 3.88673,4.63814 6.604,4.7281 2.07169,0.0688 3.81,-1.51606 5.55625,-2.41035 5.48216,-2.80988 12.13644,-7.41892 15.2056,-12.90108 3.76502,-6.72307 8.02217,-13.76363 10.9855,-20.90209 1.21179,-2.92364 1.79917,-6.04573 2.92894,-8.99583 0.73819,-1.92352 2.02671,-3.56129 2.58762,-5.55625 0.99748,-3.5269 1.2065,-7.41363 2.36802,-10.84792 0.37571,-1.11125 1.35996,-1.83091 1.7489,-2.91041 0.45508,-1.26207 0.045,-2.89984 0.23813,-4.23334 0.30427,-2.09285 1.34672,-4.0005 1.69597,-6.08541 0.71438,-4.23598 0.53975,-10.30447 2.94482,-14.0126 2.62466,-4.04548 7.45331,-6.30582 11.684,-8.21558 1.6457,-0.74268 4.03489,-0.51117 5.82083,-0.812 7.7761,-1.30996 17.02594,-1.31445 21.16666,6.90059 2.01613,3.99733 -1.77006,8.19521 -2.09285,12.17084 -0.17462,2.17487 0.35719,4.7572 3.15119,4.1275 2.48179,-0.55563 4.18571,-3.61421 5.67796,-5.45042 2.52677,-3.11097 6.9506,-8.34919 5.07206,-12.7 -0.86254,-2.00263 -2.89984,-3.50943 -4.40002,-5.02708 -1.11654,-1.13189 -2.10873,-2.38284 -3.43959,-3.28137 -1.82297,-1.2311 -4.07193,-1.80631 -6.08541,-2.65165 -6.74158,-2.82892 -13.47523,-4.69291 -20.90208,-3.7809 -4.5429,0.55801 -8.81327,2.30056 -13.22917,3.36392 -0.19315,-1.95183 0.74348,-3.87774 0.9816,-5.82084 0.74613,-6.07615 2.03994,-11.90704 2.91571,-17.99166 1.38377,-9.59962 2.26748,-19.23495 4.77044,-28.575 0.33867,-1.25836 1.34673,-2.04999 1.76742,-3.21998 1.43668,-4.01135 2.01877,-8.506091 3.1697,-12.655022 1.43934,-5.176837 3.52425,-10.173494 4.93713,-15.345833 0.26723,-0.973667 -0.127,-1.954477 0.16933,-2.910417 0.762,-2.472266 3.13531,-4.221956 4.04548,-6.614583 0.69056,-1.820862 0.35719,-3.926681 1.07421,-5.820833 3.02683,-8.004969 7.5565,-15.897754 12.48039,-23.007373 1.68011,-2.426229 7.58561,-4.194704 5.1435,-8.421422 -0.97102,-1.67984 -4.81277,-1.383507 -6.52991,-1.810015 -3.06123,-0.760148 -6.60665,-1.376362 -9.525,-2.518833 -3.00567,-1.176338 -8.03275,-4.030398 -10.85586,-0.190236 -1.55839,2.117196 -0.83343,4.960938 -1.09537,7.372879 -0.1561,1.42584 -1.01335,2.18784 -1.51606,3.439584 -0.35719,0.889793 -0.0953,1.962679 -0.38365,2.910416 -1.51341,4.982634 -4.67519,8.981546 -6.5061,13.758333 -1.94734,5.090584 -2.47386,10.573279 -4.62756,15.610417 -5.41603,12.665868 -17.2429,22.368404 -27.4029,31.296508 -4.90537,4.31112 -9.99596,8.568 -15.34583,12.26767 -1.1774,0.81412 -4.32594,3.28348 -5.81554,2.88448 -2.30717,-0.6178 -0.87048,-5.16625 -0.64559,-6.76116 0.32544,-2.32331 1.05569,-4.56115 1.35732,-6.87917 0.20373,-1.5658 -0.15875,-3.22315 0.22225,-4.762495 0.68527,-2.752725 1.94998,-5.416021 2.667,-8.202084 0.9472,-3.683793 3.30993,-6.533091 4.572,-10.054166 3.02154,-8.426185 5.28108,-17.572831 9.93245,-25.4 1.87325,-3.147483 3.95552,-6.201304 5.96636,-9.260416 0.94456,-1.436952 2.16164,-3.207279 1.63512,-5.027083 -0.4445,-1.543844 -1.94733,-2.619905 -3.22262,-3.468688 -3.37079,-2.243137 -8.05392,-3.834606 -11.90625,-5.065183 -2.08756,-0.666221 -7.22842,-1.271852 -8.29733,1.476375 -0.7329,1.886479 1.63247,4.505854 1.63512,6.528329 0.008,5.198533 -1.1086,10.155237 -2.68817,15.08125 -0.508,1.583002 -1.53987,2.741348 -2.159,4.233333 -1.41816,3.40651 -2.0611,7.326312 -3.21998,10.847916 -1.34408,4.079611 -3.2332,8.057357 -4.38679,12.170834 -2.84691,10.133541 -4.32593,20.340368 -6.04043,30.691668 -0.98955,5.97667 -0.13494,11.87794 1.49489,17.72708 0.55034,1.97538 0.29634,4.1193 2.13254,5.57265 3.39725,2.68685 8.73654,0.28417 12.00415,-1.07156 2.87073,-1.19168 5.92402,-2.28864 8.46666,-4.10765 0.95515,-0.68448 1.48167,-1.89998 2.46592,-2.50376 0.69586,-0.42571 1.57427,-0.35983 2.286,-0.80248 4.46617,-2.78103 9.2419,-7.11094 12.97517,-10.84553 2.88396,-2.88449 6.33941,-8.205 10.84791,-7.67292 M 57.8952,75.989768 c 1.542521,3.687498 3.532187,7.593806 3.923771,11.641667 0.447145,4.614862 -1.27,7.971102 -2.667,12.170833 -1.010709,3.037152 -1.664229,6.291262 -2.82575,9.260412 -2.640542,6.75005 -4.894792,13.10535 -3.026833,20.37292 0.4445,1.72429 0.788458,4.1619 2.053166,5.49593 1.066271,1.12447 2.741083,0.89984 4.130146,0.70088 3.092979,-0.44292 6.164791,-1.00939 9.260416,-1.43431 3.246437,-0.44582 6.297083,-0.0519 9.525,-0.2884 3.963458,-0.29051 7.884583,-1.11257 11.906249,-1.28878 1.666875,-0.0728 3.391958,0.35983 5.027083,0.20161 1.701271,-0.16483 3.307292,-0.98319 5.027082,-1.19459 2.4474,-0.30057 4.72281,-0.20638 7.14375,-0.86651 1.85208,-0.50536 3.31523,-1.78647 5.03767,-2.2696 2.0955,-0.58817 3.99521,0.0614 6.07483,-0.97975 0.97102,-0.4863 2.82046,-1.46209 2.64054,-2.81146 -0.127,-0.95277 -1.64835,-1.51024 -2.37596,-1.91664 -2.6961,-1.50522 -4.88156,-2.14286 -7.9375,-2.36802 -4.65137,-0.3429 -9.017,-1.51924 -13.758329,-1.28853 -2.124604,0.10346 -4.235979,1.10702 -6.349999,1.46183 -3.897313,0.65378 -7.254875,0.6522 -11.1125,0.65193 -3.127375,0 -6.125104,1.09723 -9.260416,0.5416 -1.256771,-0.22251 -2.865437,-0.58208 -2.849562,-2.14074 0.02117,-2.22091 1.187979,-4.29075 1.878541,-6.34603 1.550458,-4.61169 3.190875,-8.98314 4.923896,-13.493752 1.180041,-3.071813 1.733021,-5.973498 4.778375,-7.810765 2.124604,-1.281641 4.550833,-1.06627 6.879166,-1.628774 2.159,-0.52123 3.640666,-2.247107 5.820833,-2.727325 3.082396,-0.678657 6.103937,0.185472 9.260415,-0.530225 2.30452,-0.522552 5.05619,-0.944298 7.40833,-0.936625 1.03717,0.0032 2.159,0.607748 3.175,0.427566 1.20915,-0.214048 2.21457,-1.298046 3.43959,-1.629833 1.56368,-0.423598 3.18293,-0.08334 4.7625,-0.3683 1.38641,-0.249767 5.57741,-1.676929 5.22287,-3.585104 -0.56885,-3.080544 -4.36298,-3.123671 -6.54579,-4.053946 -5.35781,-2.284677 -9.18369,-1.500187 -14.81667,-1.498335 -3.1697,0.0011 -6.357933,-0.553244 -9.524995,-0.770202 -1.762125,-0.12065 -7.662333,0.65696 -8.601604,-1.097492 -0.648229,-1.212056 0.605896,-2.980796 1.2065,-3.95314 1.743604,-2.822574 2.846917,-6.041231 4.355041,-8.995833 2.00025,-3.916891 1.381125,-10.558727 5.431896,-13.191066 2.129896,-1.385094 5.246692,-0.823648 7.662332,-1.21285 1.58221,-0.255058 2.91835,-1.288256 4.49792,-1.443302 6.83948,-0.671513 13.30854,0.956204 20.10833,-0.468313 2.39977,-0.502973 4.6355,-1.507595 6.87917,-2.47015 0.7567,-0.324114 2.15635,-0.729456 2.41035,-1.633273 0.2831,-1.000389 -2.43946,-3.68591 -3.23056,-4.265877 -4.34181,-3.17447 -10.39019,-2.708539 -15.31938,-3.142456 -5.1726,-0.455612 -10.44045,-1.31101 -15.61041,-1.531143 -2.29394,-0.09763 -4.564065,0.389202 -6.879169,0.230716 -2.942166,-0.201612 -5.781145,-1.029758 -8.731249,-1.034785 -3.466042,-0.0058 -6.781271,-1.058334 -10.31875,-1.058334 -0.899583,0 -2.788708,-0.341047 -3.431645,0.460905 -0.669396,0.836348 -0.02646,3.302 0.103187,4.301595 0.449792,3.386932 2.516187,4.002617 3.878792,6.879167 0.693208,1.463146 0.529166,3.186642 0.508,4.7625 -0.03175,2.17461 -1.375834,3.80365 -2.00025,5.820833 -1.870604,6.028267 -4.362979,12.270581 -7.01675,17.991666 -1.164167,2.506928 -0.465667,4.920457 -3.418417,6.678613 C 65.0072,77.2812 63.652533,75.406098 62.128533,75.076427 60.72095,74.771627 59.181075,75.481768 57.8952,75.989768 M 49.428534,31.804352 c 1.386416,3.132667 0.619125,4.822296 0.06879,7.9375 -1.156229,6.557169 -5.206999,11.464131 -10.387541,15.712017 -2.439458,1.999985 -5.458354,4.237302 -8.731249,4.385998 -3.767667,0.17092 -6.863292,-1.866107 -10.054167,-3.639873 -1.73302,-0.964671 -3.286124,-2.432844 -2.873374,-4.551892 0.992187,-5.10831 5.000624,-6.952985 8.694207,-9.76286 2.83898,-2.159794 5.220229,-4.151048 8.466667,-5.745163 4.376208,-2.148945 10.017124,-3.404658 14.816666,-4.335727 M -227.85505,67.653277 c 1.66793,-0.329406 2.12646,2.11455 2.06137,3.309408 -0.0778,1.42875 -0.66649,2.799292 -0.70406,4.233333 -0.0828,3.152246 1.63751,7.013311 -2.94428,7.812352 -2.31511,0.403754 -2.86597,-2.321983 -3.0988,-4.108185 -0.47149,-3.620029 0.23839,-6.103408 2.36934,-8.995833 0.61569,-0.835554 1.1946,-2.029354 2.31643,-2.251075 M 179.07436,193.99393 c -2.29129,9.61496 -4.18306,19.29077 -7.67027,28.575 -2.21192,5.88434 -6.02456,11.2104 -9.52765,16.40417 -5.0456,-1.76477 -1.66422,-7.35277 -1.69068,-11.1125 -0.0317,-4.3815 2.46062,-8.05392 4.38679,-11.90625 2.55323,-5.10646 4.64873,-10.08063 7.99835,-14.81667 1.69334,-2.39183 3.67506,-6.04837 6.50346,-7.14375 z"
       id="path325" />
  </g>
</svg>
